<svg xmlns="http://www.w3.org/2000/svg" viewBox="-3.03 3.97 261.57 89.06" role="img" aria-label="KAPi"><path fill="#0a93d6" d="M9.91 55.09A27 27 0 1 1 24.31 62.59L9 66Z"/><path fill="#6aa12f" d="M79.69 62.59A27 27 0 1 1 94.09 55.09L95 66Z"/><path fill="#ef8f1e" d="M38.5 77.38A27 27 0 1 1 56.69 80.59L46 88Z"/><path fill="#1d1d1b" transform="translate(118 65) scale(0.66)" d="M57.15773315429688 0.0H41.249975585937506L21.582598876953128 -27.452349853515628L18.2001953125 -23.3899658203125V0.0H6.0V-70.0H18.2001953125V-42.3502685546875L41.33746948242188 -70.0H57.280224609375004L29.562725830078126 -36.98250122070313ZM88.06749877929688 -70.0H102.09769897460939L127.53269653320314 0.0H114.58999023437501L110.08252563476563 -12.39990234375H80.10017089843751L75.59270629882813 0.0H62.650000000000006ZM84.56774291992188 -24.60009765625H105.59745483398439L95.05009765625002 -53.469702148437506ZM137.55 0.0V-70.0H162.55009765625002Q168.2476013183594 -70.0 172.86135559082032 -67.1449951171875Q177.47510986328126 -64.289990234375 180.19886169433596 -59.50248413085937Q182.92261352539063 -54.714978027343754 182.92261352539063 -48.93247680664063Q182.92261352539063 -43.067474365234375 180.1326110839844 -38.287469482421876Q177.34260864257814 -33.50746459960938 172.7038543701172 -30.677459716796875Q168.06510009765626 -27.847454833984376 162.55009765625002 -27.847454833984376H149.7501953125V0.0ZM149.7501953125 -40.04765014648438H161.25256958007813Q163.8475280761719 -40.04765014648438 165.99624328613282 -41.352630615234375Q168.14495849609375 -42.65761108398438 169.43368835449218 -44.856326293945315Q170.72241821289063 -47.05504150390625 170.72241821289063 -49.769995117187506Q170.72241821289063 -52.48494873046875 169.43368835449218 -54.68366394042969Q168.14495849609375 -56.882379150390626 165.99624328613282 -58.18735961914062Q163.8475280761719 -59.492340087890625 161.25256958007813 -59.492340087890625H149.7501953125ZM192.9 -50.0H205.1001953125V0.0H192.9ZM199.08259887695314 -56.442413330078125Q196.37506103515625 -56.442413330078125 194.53378601074218 -58.23368835449219Q192.69251098632813 -60.02496337890625 192.69251098632813 -62.7Q192.69251098632813 -65.34253540039063 194.53378601074218 -67.15006103515626Q196.37506103515625 -68.95758666992188 199.05009765625002 -68.95758666992188Q201.67513427734377 -68.95758666992188 203.50015869140628 -67.15006103515626Q205.32518310546877 -65.34253540039063 205.32518310546877 -62.7Q205.32518310546877 -60.02496337890625 203.54140930175782 -58.23368835449219Q201.75763549804688 -56.442413330078125 199.08259887695314 -56.442413330078125Z"/></svg>