<svg xmlns="http://www.w3.org/2000/svg" viewBox="-1.43 -85.28 334.08 94.34" role="img">
  <title>KaM·in – Bürgertreff</title>
  <path fill="#1d1d1b" d="M130.55 0V-72.75H153.44L165.22 -39.35Q165.96 -37.03 166.91 -33.31Q167.86 -29.59 168.84 -25.29Q169.8 -21.08 170.65 -17.11Q171.47 -21.02 172.42 -25.19Q173.4 -29.5 174.35 -33.25Q175.3 -37.01 176.04 -39.35L187.65 -72.75H210.59V0H195.63V-34.3Q195.63 -36.68 195.71 -40.23Q195.78 -43.79 195.9 -47.91Q196.01 -52.03 196.11 -56.23Q196.15 -58.12 196.18 -59.9Q195.67 -57.85 195.11 -55.74Q193.98 -51.43 192.84 -47.37Q191.7 -43.3 190.67 -39.92Q189.65 -36.53 188.91 -34.3L176.87 0H164.3L152.07 -34.3Q151.33 -36.51 150.31 -39.86Q149.29 -43.21 148.13 -47.26Q146.96 -51.3 145.81 -55.63Q145.31 -57.48 144.83 -59.29Q144.86 -57.9 144.9 -56.43Q145 -52.28 145.1 -48.12Q145.2 -43.97 145.29 -40.36Q145.38 -36.75 145.38 -34.3V0ZM6.57 0V-72.75H21.49V-52.86L21.25 -36.33Q21.61 -36.93 21.98 -37.51Q24.14 -40.93 26.72 -44.36Q29.29 -47.79 32.63 -51.85L50.43 -72.75H68.65L41.45 -41.27L69.41 0H51.81L31.13 -31.46L21.49 -20.78V0ZM90.42 1.06Q85.22 1.06 81.1 -0.78Q76.98 -2.61 74.62 -6.24Q72.26 -9.87 72.26 -15.26Q72.26 -19.85 73.93 -22.91Q75.61 -25.97 78.51 -27.84Q81.41 -29.71 85.11 -30.68Q88.8 -31.66 92.84 -32.04Q97.57 -32.52 100.47 -32.94Q103.38 -33.36 104.74 -34.25Q106.09 -35.15 106.09 -36.92V-37.16Q106.09 -39.49 105.1 -41.11Q104.11 -42.73 102.2 -43.59Q100.3 -44.45 97.52 -44.45Q94.72 -44.45 92.62 -43.6Q90.52 -42.74 89.18 -41.32Q87.85 -39.9 87.26 -38.13L73.83 -40.36Q75.21 -45.13 78.49 -48.45Q81.76 -51.77 86.63 -53.52Q91.49 -55.27 97.56 -55.27Q101.96 -55.27 106.11 -54.23Q110.26 -53.19 113.56 -50.97Q116.86 -48.76 118.8 -45.24Q120.74 -41.72 120.74 -36.75V0H106.85V-7.58H106.37Q105.04 -5.04 102.85 -3.1Q100.65 -1.15 97.56 -0.04Q94.48 1.06 90.42 1.06ZM289.52 -31.61V0H274.88V-54.59H288.71L288.9 -43.3Q290.99 -48.46 294.59 -51.53Q298.96 -55.27 305.88 -55.27Q311.55 -55.27 315.77 -52.81Q319.99 -50.34 322.32 -45.73Q324.65 -41.13 324.65 -34.72V0H310.01V-32.17Q310.01 -37.26 307.38 -40.15Q304.76 -43.04 300.13 -43.04Q297.04 -43.04 294.64 -41.69Q292.24 -40.33 290.88 -37.79Q289.52 -35.24 289.52 -31.61ZM250.78 0V-54.59H265.42V0ZM94.54 -9.21Q98 -9.21 100.62 -10.59Q103.24 -11.96 104.72 -14.3Q106.2 -16.64 106.2 -19.52V-25.42Q105.53 -24.97 104.22 -24.58Q102.92 -24.18 101.31 -23.87Q99.7 -23.56 98.14 -23.33Q96.57 -23.1 95.35 -22.93Q92.66 -22.57 90.61 -21.69Q88.56 -20.82 87.43 -19.36Q86.3 -17.9 86.3 -15.69Q86.3 -13.57 87.37 -12.13Q88.43 -10.69 90.29 -9.95Q92.14 -9.21 94.54 -9.21Z"/>
  <path fill="#e2231a" d="M238.9 -36.38C238.9 -31.93 235.29 -28.32 230.84 -28.32C226.39 -28.32 222.79 -31.93 222.79 -36.38C222.79 -40.82 226.39 -44.43 230.84 -44.43C235.29 -44.43 238.9 -40.82 238.9 -36.38ZM266.16 -69.23C266.16 -64.78 262.56 -61.18 258.11 -61.18C253.66 -61.18 250.06 -64.78 250.06 -69.23C250.06 -73.68 253.66 -77.28 258.11 -77.28C262.56 -77.28 266.16 -73.68 266.16 -69.23Z"/>
</svg>
